<?xml version="1.0" encoding="UTF-8" standalone="no"?>
<!DOCTYPE svg PUBLIC "-//W3C//DTD SVG 1.1//EN" "http://www.w3.org/Graphics/SVG/1.1/DTD/svg11.dtd">
<svg width="100%" height="100%" viewBox="0 0 166 166" version="1.1" xmlns="http://www.w3.org/2000/svg" xmlns:xlink="http://www.w3.org/1999/xlink" xml:space="preserve" xmlns:serif="http://www.serif.com/" style="fill-rule:evenodd;clip-rule:evenodd;stroke-linejoin:round;stroke-miterlimit:2;">
    <g id="Background" transform="matrix(0.527659,0,0,0.724449,-94.422651,-286.04624)">
        <clipPath id="_clip1">
            <rect x="178.946" y="394.847" width="314.597" height="229.14"/>
        </clipPath>
        <g clip-path="url(#_clip1)">
            <g>
                <path d="M486.417,412.243C489.481,411.231 489.431,411.374 492.472,410.243C492.616,410.189 494.621,409.443 493.91,411.522C493.907,411.531 482.683,434.597 481.707,436.603C397.627,609.397 398.338,610.115 396.62,610.721C393.804,611.715 350.663,581.068 335.59,572.137C334.569,571.292 334.423,571.536 333.612,570.5C332.835,569.507 309.258,553.785 307.121,552.36C307.302,552.139 306.954,551.756 315.86,544.953C344.173,523.272 372.487,501.591 400.8,479.91C472.706,424.839 473.607,426.115 485.97,416.843C486.169,416.735 488.263,415.595 488.398,415.389C488.562,415.141 488.778,414.812 486.417,412.243Z" style="fill:rgb(245,183,69);"/>
                <path d="M486.417,412.243C488.778,414.812 488.562,415.141 488.398,415.389C488.263,415.595 486.169,416.735 485.97,416.843C485.751,416.79 485.466,414.449 482.61,416.679C470.969,425.766 450.324,435.795 331.281,506.12C321.058,512.159 321.043,511.915 310.78,517.962C296.284,526.504 296.425,526.575 281.73,534.892C281.42,535.067 278.733,536.588 278.145,537.528C277.966,537.814 278.471,538.243 278.292,538.529C276.338,534.398 271.482,532.664 251.361,517.693C220.709,494.887 220.333,495.415 217.925,493.131C216.339,491.626 222.138,489.878 222.578,489.745C243.641,483.396 244.005,484.693 486.417,412.243Z" style="fill:rgb(245,184,70);"/>
                <path d="M244.347,470.863C243.475,470.46 237.635,467.763 233.861,465.006C223.642,457.54 216.111,444.823 222.621,447.071C238.806,452.661 270.209,450.302 259.457,448.594C238.511,445.266 206.447,441.634 205.571,396.507C205.524,394.06 206.861,394.622 208.713,396.234C239.296,422.867 304.287,415.531 341.532,421.29C362.797,424.578 377.094,433.64 374.747,435.74C373.787,436.598 281.511,462.823 273.39,465.131C249.944,471.795 249.702,472.87 244.347,470.863Z" style="fill:rgb(185,41,48);"/>
                <path d="M485.97,416.843C473.607,426.115 472.706,424.839 400.8,479.91C372.487,501.591 344.173,523.272 315.86,544.953C306.954,551.756 307.302,552.139 307.121,552.36C303.648,560.608 292.586,595.673 291.391,599.462C290.971,600.792 290.883,601.511 290.86,601.693C290.506,604.576 289.213,603.831 288.825,604.334C282.037,559.265 279.239,543.776 278.292,538.529C278.471,538.243 277.966,537.814 278.145,537.528C278.733,536.588 281.42,535.067 281.73,534.892C296.425,526.575 296.284,526.504 310.78,517.962C321.043,511.915 321.058,512.159 331.281,506.12C450.324,435.795 470.969,425.766 482.61,416.679C485.466,414.449 485.751,416.79 485.97,416.843Z" style="fill:rgb(182,41,46);"/>
                <path d="M507.447,529.581C501.484,525.131 498.549,520.014 504.46,521.672C508.806,522.892 516.381,523.194 516.423,523.181C522.898,521.073 509.73,522.362 500.891,516.023C495.063,511.844 492.095,496.096 496.682,500.17C511.63,513.444 549.893,504.601 565.119,514.835C566.849,515.997 563.875,517.063 524.461,528.375C515.75,530.875 515.41,533.838 507.447,529.581Z" style="fill:rgb(188,42,47);"/>
                <path d="M307.121,552.36C309.258,553.785 332.835,569.507 333.612,570.5C334.423,571.536 334.569,571.292 335.59,572.137C331.227,572.95 327.42,577.763 315.136,587.017C291.529,604.8 291.134,605.415 288.825,604.334C289.213,603.831 290.506,604.576 290.86,601.693C290.883,601.511 290.971,600.792 291.391,599.462C292.586,595.673 303.648,560.608 307.121,552.36Z" style="fill:rgb(228,133,43);"/>
                <path d="M235.37,596.098C234.769,596.273 228.437,598.123 227.654,597.352C223.855,593.615 235.529,587.225 269.218,563.062C270.732,561.976 271.405,561.512 271.923,563.277C276.921,580.293 275.872,580.936 274.538,581.572C262.518,587.302 238.549,595.068 235.37,596.098Z" style="fill:rgb(240,165,53);"/>
                <path d="M240.624,619.851C239.954,620.126 216.535,629.735 231.605,620.67C258.802,604.31 271.383,592.331 273.522,595.482C275.644,598.608 279.333,604.472 276.636,605.733C266.723,610.365 243.532,618.794 240.624,619.851Z" style="fill:rgb(239,165,57);"/>
                <path d="M219.673,571.723C232.236,562.129 254.71,544.681 256.153,545.881C256.987,546.576 257.346,555.966 257.212,556.456C256.206,560.154 210.946,580.276 210.715,580.122C208.984,578.968 216.898,573.859 219.673,571.723Z" style="fill:rgb(243,173,60);"/>
                <path d="M184.451,620.442C197.088,609.678 204.079,604.317 205.831,602.973C210.075,599.719 214.307,609.977 212.32,611.264C211.426,611.843 183.946,624.231 181.473,625.346C174.516,628.482 184.094,620.731 184.451,620.442Z" style="fill:rgb(241,176,63);"/>
            </g>
        </g>
    </g>
</svg>
